<svg xmlns="http://www.w3.org/2000/svg" version="1.1" xmlns:xlink="http://www.w3.org/1999/xlink" xmlns:svgjs="http://svgjs.dev/svgjs" width="1500" height="1500" viewBox="0 0 1500 1500"><rect width="1500" height="1500" fill="none"></rect><g transform="matrix(0.6666666666666666,0,0,0.6666666666666666,249.39393939393938,438.58569500674764)"><svg viewBox="0 0 396 247" data-background-color="#111111" preserveAspectRatio="xMidYMid meet" height="935" width="1500" xmlns="http://www.w3.org/2000/svg" xmlns:xlink="http://www.w3.org/1999/xlink"><g id="tight-bounds" transform="matrix(1,0,0,1,0.2400000000000091,-0.09999999999999432)"><svg viewBox="0 0 395.52 247.2" height="247.2" width="395.52"><g><svg></svg></g><g><svg viewBox="0 0 395.52 247.2" height="247.2" width="395.52"><g transform="matrix(1,0,0,1,75.54432000000001,56.32471447651872)"><svg viewBox="0 0 244.43135999999996 134.55057104696255" height="134.55057104696255" width="244.43135999999996"><g><svg viewBox="0 0 244.43135999999996 134.55057104696255" height="134.55057104696255" width="244.43135999999996"><g><svg viewBox="0 0 244.43136 134.55057104696257" height="134.55057104696255" width="244.43135999999996"><g transform="matrix(1,0,0,1,0,83.15765080822139)"><svg viewBox="0 0 244.43136 51.39292023874119" height="51.39292023874119" width="244.43136"><g id="textblocktransform"><svg viewBox="0 0 244.43136 51.39292023874119" height="51.39292023874119" width="244.43136" id="textblock"><g><svg viewBox="0 0 244.43136 51.39292023874119" height="51.39292023874119" width="244.43136"><g transform="matrix(1,0,0,1,0,0)"><svg width="244.43136" viewBox="2.2 -37.8 184.28 38.75" height="51.39292023874119" data-palette-color="#ffffff"><path d="M2.2-16.95L2.2-16.95Q2.2-25.35 7.25-30.73 12.3-36.1 21.55-36.1L21.55-36.1Q25.85-36.1 29.3-34.85 32.75-33.6 34.75-31.78 36.75-29.95 38.1-27.6L38.1-27.6Q40.45-23.5 40.45-19.6L40.45-19.6Q40.45-12.8 37.8-8.1L37.8-8.1Q32.75 0.8 20.85 0.8L20.85 0.8Q14.9 0.8 10.58-1.8 6.25-4.4 4.23-8.35 2.2-12.3 2.2-16.95ZM6.6-19.5L6.6-19.5Q6.6-15.05 8.95-10.4L8.95-10.4Q10.2-7.9 11.98-5.93 13.75-3.95 16.48-2.68 19.2-1.4 22.45-1.4L22.45-1.4Q26.15-1.4 29.75-3.55L29.75-3.55Q33.75-5.9 35.4-10.1L35.4-10.1Q36.35-12.35 36.35-15L36.35-15Q36.35-24.05 31.6-29.08 26.85-34.1 19.85-34.1L19.85-34.1Q14.35-34.1 10.48-30.4 6.6-26.7 6.6-19.5ZM47.2-5.9L47.2-9.6 47.4-30.85Q47.4-32 47.02-32.93 46.65-33.85 46.2-34.05 45.75-34.25 44.2-34.25L44.2-34.25Q43.65-34.25 43.65-34.6 43.65-34.95 43.72-35.1 43.8-35.25 44.05-35.38 44.3-35.5 44.65-35.6L44.65-35.6Q46.1-35.9 47.65-36.65L47.65-36.65Q50.1-37.8 50.85-37.8L50.85-37.8Q51.45-37.8 51.45-36.85L51.45-36.85Q51.45-36.65 51.35-35.7L51.35-35.7Q51.05-32.75 51.05-29.25L51.05-29.25 51.05-26.45 50.95-19.8 50.95-4.9Q50.95-3.85 51.12-3.18 51.3-2.5 52.27-1.88 53.25-1.25 55-1.25L55-1.25Q55.25-1.25 55.45-1 55.65-0.75 55.65-0.5L55.65-0.5Q55.65 0.2 54.1 0.2L54.1 0.2 49.05-0.15Q47.75-0.15 46.57 0.05 45.4 0.25 45.02 0.25 44.65 0.25 44.42 0.08 44.2-0.1 44.2-0.38 44.2-0.65 44.42-0.83 44.65-1 45.15-1.1L45.15-1.1Q46.65-1.5 46.95-2.33 47.25-3.15 47.25-4.6L47.25-4.6 47.2-5.9ZM68.1 0.3L64.55 0.2 61 0.3Q59 0.3 59-0.38 59-1.05 59.75-1.3L59.75-1.3Q59.8-1.3 59.95-1.35L59.95-1.35Q61.1-1.75 61.45-2.55 61.8-3.35 61.8-10.3L61.8-10.3 61.8-14.7Q61.8-16.15 61.45-17 61.1-17.85 60.8-18.05 60.5-18.25 59.77-18.38 59.05-18.5 58.72-18.63 58.4-18.75 58.4-19.03 58.4-19.3 58.52-19.45 58.65-19.6 59.02-19.78 59.4-19.95 59.8-20.1L59.8-20.1Q61.2-20.5 62.1-20.9 63-21.3 63.47-21.5 63.95-21.7 64.1-21.8L64.1-21.8Q64.45-21.95 64.95-21.95L64.95-21.95Q65.7-21.95 65.7-21L65.7-21 65.4-18.6 65.4-4.9Q65.4-3.4 65.87-2.55 66.35-1.7 66.87-1.5 67.4-1.3 68.1-1.25 68.8-1.2 69-1.2L69-1.2Q69.7-1.1 69.7-0.5L69.7-0.5Q69.7 0.35 68.85 0.35L68.85 0.35 68.1 0.3ZM63.7-26.65Q62.7-26.65 61.97-27.7 61.25-28.75 61.25-29.43 61.25-30.1 62.12-31.18 63-32.25 63.77-32.25 64.55-32.25 65.3-31.23 66.05-30.2 66.05-29.4 66.05-28.6 65.1-27.63 64.15-26.65 63.7-26.65L63.7-26.65ZM88.69-21.25L92.04-21.2 94.34-21.25Q95.19-21.25 95.47-21.1 95.74-20.95 95.74-20.6 95.74-20.25 95.49-20.1L95.49-20.1Q94.29-19.4 93.79-18.7L93.79-18.7Q92.54-17 90.19-12 87.84-7 85.89-3.15 83.94 0.7 83.19 0.7L83.19 0.7Q82.69 0.7 82.39 0.18 82.09-0.35 80.42-4.25 78.74-8.15 76.99-12.05 75.24-15.95 74.19-17.63 73.14-19.3 72.62-19.65 72.09-20 71.82-20.23 71.54-20.45 71.54-20.8L71.54-20.8Q71.54-21.35 72.49-21.35L72.49-21.35 76.04-21.15 78.94-21.1 80.89-21.25Q81.79-21.25 81.79-20.7L81.79-20.7Q81.79-19.85 80.59-19.85L80.59-19.85Q78.49-19.85 78.49-18.45L78.49-18.45Q78.49-17.65 79.29-15.93 80.09-14.2 80.74-12.83 81.39-11.45 81.82-10.53 82.24-9.6 82.94-7.95L82.94-7.95Q84.29-4.75 84.64-4.75L84.64-4.75Q85.14-4.75 87.69-10.8 90.24-16.85 90.24-17.93 90.24-19 89.77-19.43 89.29-19.85 88.69-19.8L88.69-19.8Q87.14-19.6 87.14-20.6L87.14-20.6Q87.14-21.25 88.69-21.25L88.69-21.25ZM107.74 0.95Q103.34 0.95 100.27-1.75 97.19-4.45 97.19-9.58 97.19-14.7 100.02-18.15 102.84-21.6 107.34-21.6L107.34-21.6Q109.44-21.6 111.17-20.85 112.89-20.1 113.84-19.03 114.79-17.95 115.44-16.75L115.44-16.75Q116.54-14.7 116.54-13.65L116.54-13.65Q116.54-12.75 114.49-12.75L114.49-12.75 101.64-12.75Q101.24-12.75 101.17-12.68 101.09-12.6 101.09-12.2L101.09-12.2Q101.09-7.5 103.62-4.8 106.14-2.1 109.54-2.1L109.54-2.1Q111.64-2.1 113.82-3.23 115.99-4.35 116.09-4.35L116.09-4.35Q116.59-4.35 116.59-3.9L116.59-3.9Q116.59-3.3 115.49-2.27 114.39-1.25 113.39-0.6L113.39-0.6Q110.99 0.95 107.74 0.95L107.74 0.95ZM102.04-13.95L102.04-13.95 110.84-14.25Q111.54-14.25 111.72-14.38 111.89-14.5 111.89-14.85L111.89-14.85Q111.89-16.35 110.49-18.35 109.09-20.35 106.59-20.35 104.09-20.35 102.74-18.38 101.39-16.4 101.39-14.65L101.39-14.65Q101.39-13.95 102.04-13.95ZM121.14-18.15L121.14-18.15 120.59-18.2Q119.64-18.2 119.64-19L119.64-19Q119.64-19.55 120.31-19.83 120.99-20.1 122.81-20.68 124.64-21.25 125.69-21.73 126.74-22.2 126.94-22.2L126.94-22.2Q127.59-22.2 127.59-21.2L127.59-21.2 127.54-19.85Q127.54-18.05 127.66-17.88 127.79-17.7 127.91-17.7 128.04-17.7 128.69-18.7 129.34-19.7 130.54-20.73 131.74-21.75 132.91-21.75 134.09-21.75 135.34-20.93 136.59-20.1 136.59-19.28 136.59-18.45 136.19-17.75L136.19-17.75Q135.49-16.55 134.89-16.55L134.89-16.55Q134.49-16.55 133.46-17.15 132.44-17.75 131.09-17.75 129.74-17.75 128.56-16.65 127.39-15.55 127.39-14.65L127.39-14.65 127.39-9.45 127.44-5.1 127.49-4.2Q127.49-3.15 128.19-2.4 128.89-1.65 129.51-1.55 130.14-1.45 130.59-1.4 131.04-1.35 131.29-1.33 131.54-1.3 131.84-1.2L131.84-1.2Q132.39-1.1 132.39-0.48 132.39 0.15 131.79 0.15L131.79 0.15 127.54-0.1 122.34 0.15Q121.44 0.15 121.34-0.05 121.24-0.25 121.24-0.45L121.24-0.45Q121.24-1.1 121.89-1.3L121.89-1.3Q123.19-1.6 123.46-2.58 123.74-3.55 123.74-6.75L123.74-6.75 123.69-14.8 123.64-16.3Q123.64-16.85 123.49-17.2L123.49-17.2Q123.09-18.15 121.14-18.15ZM153.98-17.25L153.98-20.1 154.03-25.5Q154.03-29.3 153.73-31.45L153.73-31.45Q153.58-32.7 152.41-33.4 151.23-34.1 150.36-34.1 149.48-34.1 149.21-34.43 148.93-34.75 148.93-34.95L148.93-34.95Q148.93-35.5 150.33-35.5L150.33-35.5 155.98-35.3 160.38-35.4Q161.48-35.4 161.48-34.7L161.48-34.7Q161.48-33.85 159.73-33.85L159.73-33.85Q158.73-33.85 158.28-31.8 157.83-29.75 157.83-27.6L157.83-27.6 157.83-25.75 157.73-21.15Q157.73-19.9 158.03-19.55 158.33-19.2 159.43-19.2L159.43-19.2 167.63-19.25Q167.63-19.25 177.08-19.15L177.08-19.15Q177.63-19.15 177.63-26.1L177.63-26.1 177.63-28.8Q177.63-32.55 176.13-33.4L176.13-33.4Q175.53-33.75 174.91-33.85 174.28-33.95 173.86-34.13 173.43-34.3 173.43-34.8 173.43-35.3 175.38-35.3L175.38-35.3 180.23-35.2 184.13-35.3Q185.28-35.3 185.28-34.65 185.28-34 184.58-34L184.58-34Q183.18-34 182.46-33.15 181.73-32.3 181.73-30.9L181.73-30.9 181.48-11.25 181.48-9.4 181.68-4.8Q181.68-1.55 185.88-1.1L185.88-1.1Q186.48-1.1 186.48-0.55L186.48-0.55Q186.48-0.2 185.98-0.1 185.48 0 184.03 0L184.03 0 180.18-0.25 175.48 0 174.63 0Q173.93 0 173.81-0.2 173.68-0.4 173.68-0.68 173.68-0.95 174.18-1.2 174.68-1.45 175.28-1.6 175.88-1.75 176.43-2.2L176.43-2.2Q177.48-2.95 177.48-6.9L177.48-6.9 177.63-15.75Q177.63-16.5 177.03-16.8 176.43-17.1 175.08-17.1 173.73-17.1 171.03-17L171.03-17 168.33-16.95 159.13-17.1Q158.38-17.1 158.13-16.8 157.88-16.5 157.88-15.25L157.88-15.25 157.68-9.1 157.68-6.95Q157.68-4.8 158.08-3.75 158.48-2.7 160.03-1.7L160.03-1.7Q160.43-1.45 161.48-1.45L161.48-1.45Q163.13-1.45 163.13-0.9L163.13-0.9Q163.13 0 161.53 0L161.53 0 157.38-0.2 151.98 0.05Q149.63 0.05 149.63-0.7L149.63-0.7Q149.63-1.4 151.18-1.6L151.18-1.6Q151.78-1.65 152.43-2.23 153.08-2.8 153.28-3.78 153.48-4.75 153.73-9.05 153.98-13.35 153.98-17.25L153.98-17.25Z" opacity="1" transform="matrix(1,0,0,1,0,0)" fill="#ffffff" class="wordmark-text-0" data-fill-palette-color="primary" id="text-0"></path></svg></g></svg></g></svg></g></svg></g><g transform="matrix(1,0,0,1,72.65146036198409,0)"><svg viewBox="0 0 99.12843927603183 71.02501576994032" height="71.02501576994032" width="99.12843927603183"><g><svg xmlns="http://www.w3.org/2000/svg" xmlns:xlink="http://www.w3.org/1999/xlink" version="1.1" x="0" y="0" viewBox="1.5 15.2 97 69.5" enable-background="new 0 0 100 100" xml:space="preserve" height="71.02501576994032" width="99.12843927603183" class="icon-icon-0" data-fill-palette-color="accent" id="icon-0"><path d="M7.2 84.7h85.5c3.2 0 5.8-2.6 5.8-5.8v-2.5c0-0.5-0.2-1-0.5-1.4l-4.3-5.3c-0.7-0.9-1.1-1.9-1.1-3v-5-3.2-9.2l0 0V23.7c0-4.7-3.8-8.5-8.5-8.5H52.4 15.9c-4.7 0-8.5 3.8-8.5 8.5v34.8 1.9 6.2c0 1.1-0.4 2.2-1.1 3L2 75.1c-0.3 0.4-0.5 0.9-0.5 1.4V79C1.5 82.2 4.1 84.7 7.2 84.7zM59.2 76.4c0 1.6-1.3 2.9-2.9 2.9H43.8c-1.6 0-2.9-1.3-2.9-2.9v-0.6h18.4V76.4zM15.9 60.8v-2.2V23.7c0 0 0 0 0 0h40.3 27.9c0 0 0 0 0 0v34.9 2.2 0.6h0v0.4 5.5H15.9V60.8zM54.9 32.9l3.9 2.2-13.7 24-3.9-2.2L54.9 32.9zM38.5 38l-8 8 8 8-3.2 3.2-8-8L24.2 46l3.2-3.2 8-8L38.5 38zM72.6 42.8l3.2 3.2-3.2 3.2-8 8L61.5 54l8-8-8-8 3.2-3.2L72.6 42.8z" fill="#ffffff" data-fill-palette-color="accent"></path></svg></g></svg></g><g></g></svg></g></svg></g></svg></g><g><path d="M104.857 44.192A122.216 122.216 0 0 1 290.663 44.192L286.029 44.192A117.581 117.581 0 0 0 109.491 44.192L104.857 44.192M104.857 203.008A122.216 122.216 0 0 0 290.663 203.008L286.029 203.008A117.581 117.581 0 0 1 109.491 203.008L104.857 203.008" fill="#ffffff" stroke="transparent" data-fill-palette-color="tertiary"></path></g></svg></g><defs></defs></svg><rect width="395.52" height="247.2" fill="none" stroke="none" visibility="hidden"></rect></g></svg></g></svg>